<svg xmlns="http://www.w3.org/2000/svg" width="178" height="178" viewBox="0 0 178 178">
  <g id="Group_402" data-name="Group 402" transform="translate(8251 5594)">
    <rect id="Rectangle_491" data-name="Rectangle 491" width="178" height="178" transform="translate(-8251 -5594)"/>
    <path id="Path_317" data-name="Path 317" d="M97.574,74.325,87.547,44.074a25.244,25.244,0,0,0,7.331-12.568c.048-.187.1-.372.139-.56.108-.492.19-.993.268-1.5.059-.355.116-.708.157-1.067.043-.39.068-.787.1-1.183.022-.312.065-.618.076-.933,0-.151-.011-.3-.009-.447,0-.125.02-.245.02-.37,0-.275-.032-.54-.042-.811-.012-.46-.028-.918-.065-1.371s-.1-.876-.159-1.311c-.051-.366-.094-.731-.16-1.092-.1-.586-.239-1.161-.386-1.732-.046-.185-.085-.372-.137-.554A25.291,25.291,0,0,0,71.222.022L71.2.02A1.651,1.651,0,0,0,70.947,0H24.677a1.615,1.615,0,0,0-.247.02c-.194.008-.386.04-.578.052a25.269,25.269,0,0,0-22.9,18.5c-.054.19-.094.382-.143.574-.142.566-.278,1.134-.381,1.714-.068.367-.113.74-.165,1.112C.2,22.4.142,22.825.106,23.26c-.04.463-.052.93-.068,1.4-.008.265-.039.524-.039.791,0,.12.017.238.019.358,0,.154-.015.3-.009.458.011.322.056.634.077.953.026.387.051.774.094,1.155.042.366.1.726.159,1.086.079.5.16.995.264,1.484.042.19.094.375.142.561a25.24,25.24,0,0,0,3.328,7.826,25.232,25.232,0,0,0-3.125,7c-.054.19-.094.382-.143.574-.142.566-.278,1.134-.381,1.714-.068.367-.113.74-.165,1.112-.056.429-.117.854-.153,1.289-.04.463-.052.93-.068,1.4-.008.265-.039.524-.039.791,0,.12.017.238.019.358,0,.154-.015.3-.009.458.011.322.056.634.077.953.026.387.051.774.094,1.155.042.366.1.726.159,1.086.079.5.16.995.264,1.484.042.19.094.375.142.561A25.282,25.282,0,0,0,24.426,78.639a1.69,1.69,0,0,0,.251.02H49.355A1.543,1.543,0,0,0,50.9,77.117V50.9h20.05a1.664,1.664,0,0,0,.247-.02c.071,0,.142-.015.214-.019A25.452,25.452,0,0,0,82.3,47.842l9.421,28.427a3.078,3.078,0,0,0,2.93,2.116h.012a3.091,3.091,0,0,0,2.912-4.059M6.169,53.212a19.216,19.216,0,0,1,2.167-8.893,25.325,25.325,0,0,0,16.09,6.558,1.693,1.693,0,0,0,.251.02h20.05V72.49l-19.568,0-.338-.011A19.274,19.274,0,0,1,6.169,53.212M12.1,39.331a19.151,19.151,0,0,1,12.724-5.389l.288-.009H44.728V44.728l-19.568,0-.338-.011A19.157,19.157,0,0,1,12.1,39.331m-.487-27.307A19.169,19.169,0,0,1,24.822,6.18l.288-.009H44.728V27.762H24.677a1.614,1.614,0,0,0-.247.02c-.194.008-.386.04-.578.052A25.3,25.3,0,0,0,8.336,34.342a19.3,19.3,0,0,1,3.274-22.318M50.9,29.306V6.169l19.568,0,.335.011A19.273,19.273,0,0,1,85.32,37.371a17.619,17.619,0,0,0-2.061-3.919,12.657,12.657,0,0,0-10.641-5.768H57.2a3.085,3.085,0,1,0,0,6.169H72.615a6.542,6.542,0,0,1,5.522,3.034,11.8,11.8,0,0,1,1.684,3.455c.011.039.037.133.049.17l.438,1.322A19.151,19.151,0,0,1,70.8,44.717l-19.9.011Z" transform="translate(-8211 -5544)" fill="#fff"/>
  </g>
</svg>
