<svg xmlns="http://www.w3.org/2000/svg" width="59.77" height="60" viewBox="0 0 59.77 60">
  <g id="Layer_39" data-name="Layer 39" transform="translate(-2.11 -2)">
    <rect id="Rectangle_676" data-name="Rectangle 676" width="59.77" height="32.61" rx="5.74" transform="translate(2.11 29.39)" fill="#c9c9c9"/>
    <path id="Path_362" data-name="Path 362" d="M9.67,24.19H54.33a2,2,0,0,0,0-4H9.67a2,2,0,0,0,0,4Z" fill="#c9c9c9"/>
    <path id="Path_363" data-name="Path 363" d="M16.79,14.86H47.21a2,2,0,0,0,0-4H16.79a2,2,0,0,0,0,4Z" fill="#c9c9c9"/>
    <path id="Path_364" data-name="Path 364" d="M25.66,6H38.34a2,2,0,0,0,0-4H25.66a2,2,0,0,0,0,4Z" fill="#c9c9c9"/>
  </g>
</svg>
