<?xml version="1.0" encoding="UTF-8"?>
<svg id="_圖層_1" data-name="圖層 1" xmlns="http://www.w3.org/2000/svg" width="4000" height="50" viewBox="0 0 4000 50">
  <defs>
    <style>
      .cls-1 {
        fill: #0f0f0f;
      }

      .cls-2 {
        stroke-width: 6px;
      }

      .cls-2, .cls-3, .cls-4, .cls-5, .cls-6, .cls-7, .cls-8, .cls-9, .cls-10, .cls-11, .cls-12, .cls-13, .cls-14 {
        stroke: #000;
      }

      .cls-2, .cls-3, .cls-4, .cls-5, .cls-6, .cls-7, .cls-8, .cls-9, .cls-10, .cls-11, .cls-12, .cls-13, .cls-14, .cls-15 {
        fill: none;
      }

      .cls-2, .cls-3, .cls-4, .cls-5, .cls-6, .cls-7, .cls-8, .cls-9, .cls-12, .cls-13, .cls-14, .cls-15 {
        stroke-linecap: round;
      }

      .cls-2, .cls-10 {
        stroke-miterlimit: 10;
      }

      .cls-3 {
        stroke-width: 5px;
      }

      .cls-4 {
        stroke-dasharray: 0 0 4.99 5.99;
      }

      .cls-4, .cls-5, .cls-7, .cls-9, .cls-10, .cls-11, .cls-12, .cls-15 {
        stroke-width: 3px;
      }

      .cls-4, .cls-7, .cls-9, .cls-11, .cls-15 {
        stroke-miterlimit: 133.33;
      }

      .cls-6 {
        stroke-width: 4px;
      }

      .cls-7 {
        stroke-dasharray: 0 0 4.74 5.69;
      }

      .cls-8 {
        stroke-width: 4.5px;
      }

      .cls-8, .cls-12, .cls-13, .cls-14 {
        stroke-linejoin: round;
      }

      .cls-13 {
        stroke-width: 3.5px;
      }

      .cls-14 {
        stroke-dasharray: 0 0 6.06 6.06;
        stroke-width: 2px;
      }

      .cls-15 {
        stroke: #0c0310;
      }

      .cls-16 {
        fill-rule: evenodd;
      }
    </style>
  </defs>
  <g id="Group_400" data-name="Group 400">
    <line id="Line_30" data-name="Line 30" class="cls-6" x1="405.25" y1="5.25" x2="445" y2="45"/>
    <line id="Line_31" data-name="Line 31" class="cls-6" x1="445" y1="5.25" x2="405.25" y2="45"/>
  </g>
  <g id="Group_400-2" data-name="Group 400">
    <line id="Line_30-2" data-name="Line 30" class="cls-3" x1="625.07" y1="3.07" x2="625.07" y2="46.82"/>
    <line id="Line_31-2" data-name="Line 31" class="cls-3" x1="646.95" y1="24.95" x2="603.2" y2="24.95"/>
  </g>
  <g id="Group_400-3" data-name="Group 400">
    <line id="Line_30-3" data-name="Line 30" class="cls-5" x1="575" y1="14.31" x2="575" y2="36.07"/>
    <line id="Line_31-3" data-name="Line 31" class="cls-5" x1="585.88" y1="25.19" x2="564.12" y2="25.19"/>
  </g>
  <path d="m2320.64,25.81c-.52-.47-.51-1.28,0-1.74l18.88-16.96c1.63-1.46,1.77-3.97.31-5.61-1.46-1.63-3.96-1.77-5.59-.31l-23.13,20.77c-1.75,1.57-1.76,4.33-.01,5.91l23.34,21.11c1.62,1.47,4.13,1.34,5.59-.29,1.47-1.63,1.34-4.14-.29-5.61l-19.1-17.27Z"/>
  <path d="m2361.09,43.08c-1.62,1.47-1.75,3.98-.29,5.61,1.47,1.63,3.97,1.76,5.59.29l23.34-21.11c1.75-1.58,1.74-4.33-.01-5.91l-23.13-20.77c-1.63-1.46-4.13-1.33-5.59.31-1.46,1.63-1.32,4.14.31,5.61l18.88,16.96c.52.47.52,1.28,0,1.74l-19.1,17.27Z"/>
  <path d="m1454.38,25.89c0-11.77,9.53-21.32,21.3-21.32,4.04,0,7.99,1.14,11.41,3.3l2.73-2.73c.76-.76,1.98-.76,2.74,0,.36.36.57.86.57,1.38v7.75c0,1.07-.87,1.94-1.94,1.94h-7.75c-1.07,0-1.94-.87-1.94-1.94,0-.51.2-1.01.57-1.37l2.19-2.19c-8.38-4.74-19.01-1.79-23.75,6.59-1.48,2.62-2.26,5.58-2.26,8.59,0,1.07-.87,1.94-1.94,1.94s-1.94-.87-1.94-1.94Zm40.69-1.94c-1.07,0-1.94.87-1.94,1.94-.01,9.63-7.81,17.43-17.44,17.44-3,0-5.95-.77-8.56-2.26l2.18-2.18c.76-.76.76-1.98,0-2.74-.36-.36-.86-.57-1.37-.57h-7.75c-1.07,0-1.94.87-1.94,1.94v7.75c0,.78.47,1.49,1.2,1.79.24.1.49.15.74.15.51,0,1.01-.2,1.37-.57l2.73-2.73c3.41,2.17,7.36,3.31,11.4,3.29,11.76-.01,21.3-9.55,21.31-21.31,0-1.07-.87-1.94-1.94-1.94Z"/>
  <g id="Group_553" data-name="Group 553">
    <path id="Path_88" data-name="Path 88" class="cls-16" d="m61.2,22.78c0-.97-.79-1.76-1.76-1.76-.97,0-1.76.79-1.76,1.76h0c0,9.9,7.54,18.17,17.4,19.08v4.92c0,.97.79,1.76,1.76,1.76.97,0,1.76-.79,1.76-1.76h0v-4.92c9.86-.91,17.4-9.18,17.4-19.07,0-.97-.79-1.76-1.76-1.76-.97,0-1.76.79-1.76,1.76h0c-.1,8.63-7.19,15.55-15.82,15.45-8.49-.1-15.34-6.96-15.44-15.44h-.01Z"/>
    <path id="Path_89" data-name="Path 89" class="cls-16" d="m76.53,5.23c-3.77,0-6.83,3.06-6.83,6.83v10.69c0,3.77,3.06,6.83,6.83,6.83h.6c3.77,0,6.83-3.06,6.83-6.83h0v-.29h-4.95c-.97,0-1.76-.79-1.76-1.76,0-.97.79-1.76,1.76-1.76h4.95v-3.93h-2.71c-.97,0-1.76-.79-1.76-1.76,0-.97.79-1.76,1.76-1.76h2.68c-.31-3.53-3.27-6.25-6.81-6.25h-.58Zm-10.36,6.83c0-5.72,4.64-10.36,10.36-10.36h.59c5.72,0,10.36,4.64,10.36,10.36h0v10.69c0,5.72-4.63,10.36-10.35,10.36h-.6c-5.72,0-10.36-4.64-10.36-10.36v-10.69Z"/>
  </g>
  <polyline class="cls-2" points="254.5 16.24 275.65 34.76 296.5 16.5"/>
  <polyline class="cls-2" points="373.76 4.5 355.24 25.65 373.5 46.5"/>
  <g>
    <circle cx="309.5" cy="24.75" r="4.5"/>
    <circle cx="325.5" cy="24.75" r="4.5"/>
    <circle cx="341.5" cy="24.75" r="4.5"/>
  </g>
  <g>
    <path d="m975,4.03c-11.59,0-20.99,9.41-20.98,21,0,3.24.75,6.43,2.19,9.33.2.37.25.8.16,1.21l-1.17,4.35c-.57,2.14.7,4.33,2.83,4.9.68.18,1.39.18,2.07,0l4.35-1.17c.41-.1.84-.04,1.21.16,10.38,5.16,22.99.93,28.15-9.45,1.44-2.9,2.19-6.1,2.2-9.34,0-11.59-9.41-20.99-21-20.98Zm0,39.04c-2.78,0-5.53-.65-8.02-1.88-1.01-.52-2.17-.64-3.27-.36l-4.35,1.17c-.57.15-1.16-.19-1.31-.76-.05-.18-.05-.37,0-.56l1.17-4.35c.28-1.1.15-2.26-.37-3.27-4.44-8.94-.8-19.78,8.13-24.22,2.5-1.24,5.24-1.89,8.03-1.89,9.97,0,18.06,8.09,18.05,18.07,0,9.97-8.09,18.06-18.07,18.05Z"/>
    <path d="m982.7,24.7h-6.96v-11.11c0-.81-.66-1.46-1.46-1.46s-1.46.66-1.46,1.46v14.04h9.89c.81,0,1.46-.66,1.46-1.46s-.66-1.46-1.46-1.46Z"/>
  </g>
  <path d="m825.25,2c-12.43,0-22.5,10.09-22.49,22.52,0,3.47.81,6.89,2.35,10,.21.4.27.86.17,1.3l-1.26,4.66c-.61,2.29.75,4.64,3.04,5.25.73.19,1.49.19,2.22,0l4.66-1.26c.44-.1.9-.04,1.3.17,11.13,5.54,24.65,1,30.18-10.14,1.55-3.11,2.35-6.54,2.35-10.01,0-12.43-10.09-22.5-22.52-22.49Zm0,41.86c-2.98,0-5.93-.69-8.6-2.02-1.08-.55-2.33-.69-3.51-.39l-4.66,1.26c-.61.16-1.25-.2-1.41-.82-.05-.2-.05-.4,0-.6l1.26-4.66c.3-1.18.16-2.43-.39-3.51-4.76-9.58-.86-21.21,8.72-25.97,2.68-1.33,5.62-2.02,8.61-2.03,10.7,0,19.36,8.68,19.36,19.37,0,10.7-8.68,19.36-19.37,19.36Z"/>
  <path class="cls-12" d="m1008.25,17.76v-5.44c0-.67.16-1.33.45-1.93l1.7-3.4h10.76l2.15,4.31h21.53c1.19,0,2.15.96,2.15,2.15v23.68c0,2.38-1.93,4.31-4.31,4.31h-4.31"/>
  <path class="cls-11" d="m1036.74,17.76h-32.14c-1.42,0-2.45,1.35-2.08,2.72l4.85,17.79c.51,1.87,2.21,3.17,4.15,3.17h30.49c1.42,0,2.45-1.35,2.08-2.72l-5.28-19.38c-.26-.94-1.11-1.59-2.08-1.59Z"/>
  <circle class="cls-8" cx="474.83" cy="24.5" r="21.5"/>
  <path class="cls-16" d="m473.51,19.92c-1.9.89-3.52,2.42-5.15,4.65-.23.32-.24.51,0,.68.17.12.26.08.51-.18t.07-.07c.21-.23.38-.42.74-.84,1.2-1.39,1.78-1.96,2.69-2.48.79-.45,1.48.21,1.34,1.06-.04.24-.1.41-.26.79-.07.15-.09.22-.12.3-.29.78-.54,1.42-1.06,2.77l-.02.06q-.16.41-.31.82c-.68,1.77-1.1,2.86-1.52,4.01l-.03.07c-.08.2-.15.41-.23.61-.49,1.33-.77,2.19-.98,3.1q-.03.14-.07.29c-.12.52-.18.85-.22,1.2-.06.59-.01,1.08.17,1.49.21.46.66.79,1.18.87.86.13,1.69.12,2.41-.05.4-.09.8-.21,1.19-.36,1.13-.42,2.21-1.09,3.27-1.96.92-.77,1.79-1.7,2.7-2.86q.08-.1.16-.2c.28-.35.41-.58.46-.82.05-.26-.17-.53-.34-.44-.09.04-.18.13-.32.31-.1.13-.15.2-.21.26-.22.25-.45.5-.69.76-.41.44-.82.86-1.43,1.47-.31.31-.69.58-1.11.78-.66.33-1.26-.08-1.19-.82.05-.49.16-.99.34-1.47.38-1.06.7-1.92,1.39-3.81.3-.82.43-1.17.59-1.62.48-1.31.87-2.37,1.23-3.39.45-1.26.71-2.2.83-3.17.09-.73-.11-1.43-.58-1.91-.51-.53-1.25-.78-2.16-.77-1.01.01-2.19.34-3.27.85h0Z"/>
  <path class="cls-16" d="m480.41,11.23c-1.81-.71-3.99.51-4.35,2.43-.26,1.39.26,2.59,1.32,3.09,2.1,1,4.62-.6,4.62-2.93,0-1.3-.55-2.19-1.59-2.59h0Z"/>
  <path class="cls-16" d="m522.96,1.56h4.53c3.16,0,5.67,0,7.69.17,2.07.17,3.84.53,5.45,1.37,2.5,1.3,4.53,3.33,5.83,5.83.84,1.61,1.2,3.38,1.37,5.45.17,2.02.17,4.54.17,7.69v4.53c0,3.16,0,5.67-.17,7.69-.17,2.07-.53,3.84-1.37,5.45-1.3,2.5-3.33,4.53-5.83,5.83-1.61.84-3.38,1.2-5.45,1.37-2.02.17-4.54.17-7.69.17h-4.53c-3.16,0-5.67,0-7.69-.17-2.07-.17-3.84-.53-5.45-1.37-2.5-1.3-4.53-3.33-5.83-5.83-.84-1.61-1.2-3.38-1.37-5.45-.17-2.02-.17-4.54-.17-7.69v-4.53c0-3.16,0-5.67.17-7.69.17-2.07.53-3.84,1.37-5.45,1.3-2.5,3.33-4.53,5.83-5.83,1.61-.84,3.38-1.2,5.45-1.37,2.02-.17,4.54-.17,7.69-.17Zm-7.32,4.71c-1.79.15-2.88.43-3.73.87-1.66.86-3.02,2.22-3.89,3.89-.44.85-.72,1.94-.87,3.73-.15,1.81-.15,4.14-.15,7.42v4.33c0,3.28,0,5.6.15,7.42.15,1.79.43,2.88.87,3.73.86,1.66,2.22,3.02,3.89,3.89.85.44,1.94.72,3.73.87,1.81.15,4.14.15,7.42.15h4.33c3.28,0,5.6,0,7.42-.15,1.79-.15,2.88-.43,3.73-.87,1.66-.86,3.02-2.22,3.89-3.89.44-.85.72-1.94.87-3.73.15-1.81.15-4.14.15-7.42v-4.33c0-3.28,0-5.6-.15-7.42-.15-1.79-.43-2.88-.87-3.73-.86-1.66-2.22-3.02-3.89-3.89-.85-.44-1.94-.72-3.73-.87-1.81-.15-4.14-.15-7.42-.15h-4.33c-3.28,0-5.6,0-7.42.15Zm9.19,6.13c1.26,0,2.28,1.02,2.28,2.28v11.31l8.03,3.05c1.18.45,1.77,1.76,1.32,2.94-.45,1.18-1.76,1.77-2.94,1.32l-9.5-3.61c-.88-.34-1.47-1.18-1.47-2.13v-12.88c0-1.26,1.02-2.28,2.28-2.28Z"/>
  <path id="Path_84" data-name="Path 84" d="m896.32,40.68l-13.2-19.8V6.4h4.06c.75,0,1.35-.61,1.35-1.35s-.61-1.35-1.35-1.35h-24.35c-.75,0-1.35.61-1.35,1.35s.61,1.35,1.35,1.35h4.06v14.47l-13.2,19.8c-.83,1.25-.91,2.85-.2,4.17.71,1.32,2.08,2.14,3.58,2.14h35.88c1.5,0,2.87-.82,3.58-2.14.71-1.32.63-2.92-.2-4.17Zm-15.91-34.27v14.88c0,.27.08.53.23.75l2.21,3.31h-15.69l2.21-3.31c.15-.22.23-.48.23-.75V6.4h10.82Zm13.72,37.16c-.23.44-.69.72-1.19.71h-35.88c-.5,0-.96-.27-1.19-.71-.24-.44-.22-.98.07-1.39l9.44-14.16c.05.01.1.03.16.03h18.94c.05,0,.11-.02.16-.03l9.44,14.16c.28.41.31.95.07,1.39h0Zm-13.72-12.81c-2.99,0-5.41,2.42-5.41,5.41s2.42,5.41,5.41,5.41,5.41-2.42,5.41-5.41-2.42-5.41-5.41-5.41Zm0,8.12c-1.49,0-2.71-1.21-2.71-2.71s1.21-2.71,2.71-2.71,2.71,1.21,2.71,2.71-1.21,2.71-2.71,2.71Zm-8.12-4.06c0,.75-.61,1.35-1.35,1.35s-1.35-.61-1.35-1.35.61-1.35,1.35-1.35,1.35.61,1.35,1.35Zm-5.41,4.06c0,1.49-1.21,2.71-2.71,2.71s-2.71-1.21-2.71-2.71,1.21-2.71,2.71-2.71,2.71,1.21,2.71,2.71Z"/>
  <circle class="cls-10" cx="575" cy="25.19" r="22"/>
  <path class="cls-12" d="m775.49,31.22c3.64,0,6.6-2.95,6.6-6.6s-2.95-6.6-6.6-6.6-6.6,2.95-6.6,6.6,2.95,6.6,6.6,6.6Z"/>
  <path class="cls-12" d="m753.5,26.56v-3.87c0-2.29,1.87-4.18,4.18-4.18,3.98,0,5.61-2.81,3.61-6.27-1.14-1.98-.46-4.55,1.54-5.7l3.8-2.18c1.74-1.03,3.98-.42,5.01,1.32l.24.42c1.98,3.45,5.23,3.45,7.23,0l.24-.42c1.03-1.74,3.28-2.35,5.01-1.32l3.8,2.18c2,1.14,2.68,3.72,1.54,5.7-2,3.45-.37,6.27,3.61,6.27,2.29,0,4.18,1.87,4.18,4.18v3.87c0,2.29-1.87,4.18-4.18,4.18-3.98,0-5.61,2.81-3.61,6.27,1.14,2,.46,4.55-1.54,5.7l-3.8,2.18c-1.74,1.03-3.98.42-5.01-1.32l-.24-.42c-1.98-3.45-5.23-3.45-7.23,0l-.24.42c-1.03,1.74-3.28,2.35-5.01,1.32l-3.8-2.18c-2-1.14-2.68-3.72-1.54-5.7,2-3.45.37-6.27-3.61-6.27-2.31,0-4.18-1.89-4.18-4.18Z"/>
  <g>
    <path class="cls-12" d="m155,25.7h39.82"/>
    <path class="cls-12" d="m182.88,11.62l10.27,10.01c.53.51.95,1.12,1.23,1.8.29.68.43,1.4.43,2.14s-.15,1.46-.43,2.14c-.29.68-.71,1.29-1.23,1.8l-10.27,9.98"/>
  </g>
  <path class="cls-12" d="m155,17.71h17.2"/>
  <path class="cls-12" d="m214.44,36.83h6.22"/>
  <path class="cls-12" d="m155,33.71h17.2"/>
  <rect x="13.5" y="13" width="24" height="24" rx="1.89" ry="1.89"/>
  <path d="m145.54,20.74h0s-.1-.23-.1-.23c0,0,0,0,0,0l-.1-.22h0c-.83-1.7-2.3-3.02-4.47-4.98l-8.01-7.21c-1.87-1.68-3.13-2.82-4.65-3.46h0s-.47-.18-.47-.18h0c-1.55-.53-3.26-.53-5.79-.53h-.38s-.08,0-.13,0h-.02c-3.48,0-6.23,0-8.41.3-2.45.33-4.15,1.03-5.47,2.26h0s-.35.35-.35.35h0c-1.24,1.32-1.94,3.02-2.26,5.45-.3,2.2-.3,4.98-.3,8.51v7.86c0,3.53,0,6.32.3,8.51.33,2.44,1.03,4.13,2.26,5.45h0s.35.36.35.36h0c1.32,1.23,3.01,1.93,5.45,2.26,2.17.29,4.91.3,8.37.3h.02s.08,0,.12,0h8c3.46,0,6.2,0,8.37-.3,2.44-.33,4.13-1.03,5.45-2.26h0s.35-.35.35-.35h0c1.24-1.32,1.94-3.02,2.26-5.45.3-2.19.3-4.98.3-8.5v-1.27c0-2.92,0-4.9-.71-6.65Zm-2.66,7.81c0,3.6,0,6.2-.26,8.17-.24,1.79-.68,2.9-1.48,3.69h0c-.8.8-1.9,1.24-3.69,1.49-1.97.26-4.57.26-8.17.26h-7.65c-3.6,0-6.2,0-8.17-.26-1.79-.24-2.9-.68-3.7-1.48h0c-.8-.8-1.24-1.91-1.48-3.7-.26-1.97-.26-4.57-.26-8.17v-7.65c0-3.6,0-6.2.26-8.17.24-1.79.69-2.9,1.48-3.7.8-.8,1.91-1.24,3.71-1.48,1.98-.27,4.59-.27,8.21-.27,3.07,0,4.14.03,5.09.4h0c.94.36,1.75,1.04,3.95,3.03l7.65,6.88h.01c2.62,2.37,3.5,3.22,3.98,4.29h0c.47,1.07.51,2.31.51,5.83v.84Z"/>
  <path class="cls-11" d="m127.36,6.56v4.78c0,4.51,0,6.76,1.4,8.16,1.4,1.4,3.65,1.4,8.16,1.4h7.65"/>
  <path class="cls-12" d="m118.82,37.86v-12.4m0,0l-6.01,5.63m6.01-5.63l6.01,5.63"/>
  <line class="cls-12" x1="240" y1="28.5" x2="229.99" y2="38.51"/>
  <line class="cls-12" x1="240" y1="38.51" x2="229.99" y2="28.5"/>
  <g>
    <path class="cls-9" d="m1444.25,10.94h-39.3"/>
    <path class="cls-9" d="m1418.82,22.5l1.16,11.56"/>
    <path class="cls-9" d="m1430.38,22.5l-1.16,11.56"/>
    <path class="cls-11" d="m1411.88,10.94c.13,0,.19,0,.25,0,1.9-.05,3.58-1.26,4.23-3.05.02-.06.04-.12.08-.24l.22-.67c.19-.57.29-.86.41-1.11.51-.97,1.45-1.65,2.53-1.82.27-.04.57-.04,1.18-.04h7.6c.61,0,.91,0,1.18.04,1.08.17,2.02.85,2.53,1.82.13.24.22.53.41,1.11l.22.67c.04.12.06.18.08.24.65,1.79,2.33,3,4.23,3.05.06,0,.12,0,.25,0"/>
    <path class="cls-9" d="m1439.33,32.67c-.41,6.14-.61,9.21-2.61,11.08-2,1.87-5.08,1.87-11.23,1.87h-1.79c-6.15,0-9.23,0-11.23-1.87-2-1.87-2.2-4.94-2.61-11.08l-1.06-15.95m31.6,0l-.46,6.94"/>
  </g>
  <polyline class="cls-12" points="234.28 17.32 235.83 13.5 214.06 13.5 212.5 17.32"/>
  <line class="cls-12" x1="224.94" y1="14.28" x2="217.17" y2="36.83"/>
  <rect class="cls-14" x="203" y="3" width="44" height="44" rx="3.6" ry="3.6"/>
  <circle cx="816" cy="25" r="3"/>
  <circle cx="826" cy="25" r="3"/>
  <circle cx="836" cy="25" r="3"/>
  <rect class="cls-12" x="904.5" y="27.5" width="17.5" height="17.5" rx="4.72" ry="4.72"/>
  <rect class="cls-12" x="928.53" y="27.5" width="17.5" height="17.5" rx="4.72" ry="4.72"/>
  <rect class="cls-12" x="904.5" y="4.5" width="17.5" height="17.5" rx="4.72" ry="4.72"/>
  <rect class="cls-12" x="928.53" y="4.5" width="17.5" height="17.5" rx="8.75" ry="8.75"/>
  <path class="cls-1" d="m1073,3c0-1.1.9-2,2-2s2,.9,2,2v4c0,1.1-.9,2-2,2s-2-.9-2-2V3Z"/>
  <path class="cls-1" d="m1091.97,8.03c-.78-.78-2.05-.78-2.83,0l-2.83,2.83c-.78.78-.78,2.05,0,2.83.78.78,2.05.78,2.83,0l2.83-2.83c.78-.78.78-2.05,0-2.83Z"/>
  <path class="cls-1" d="m1053,27c-1.1,0-2-.9-2-2s.9-2,2-2h4c1.1,0,2,.9,2,2s-.9,2-2,2h-4Z"/>
  <path class="cls-1" d="m1058.03,8.03c-.78.78-.78,2.05,0,2.83l2.83,2.83c.78.78,2.05.78,2.83,0,.78-.78.78-2.05,0-2.83l-2.83-2.83c-.78-.78-2.05-.78-2.83,0Z"/>
  <path class="cls-1" d="m1073,43c0-1.1.9-2,2-2s2,.9,2,2v4c0,1.1-.9,2-2,2s-2-.9-2-2v-4Z"/>
  <path class="cls-1" d="m1063.69,36.31c-.78-.78-2.05-.78-2.83,0l-2.83,2.83c-.78.78-.78,2.05,0,2.83.78.78,2.05.78,2.83,0l2.83-2.83c.78-.78.78-2.05,0-2.83Z"/>
  <path class="cls-1" d="m1093,27c-1.1,0-2-.9-2-2s.9-2,2-2h4c1.1,0,2,.9,2,2s-.9,2-2,2h-4Z"/>
  <path class="cls-1" d="m1086.31,36.31c-.78.78-.78,2.05,0,2.83l2.83,2.83c.78.78,2.05.78,2.83,0,.78-.78.78-2.05,0-2.83l-2.83-2.83c-.78-.78-2.05-.78-2.83,0Z"/>
  <g>
    <path d="m1114.05,12.41c-.22.57-.68,1.02-1.25,1.25l-4.99,1.98c-1.87.74-1.87,3.39,0,4.13l4.99,1.98c.57.23,1.02.68,1.25,1.25l1.97,5.01c.74,1.87,3.38,1.87,4.11,0l1.97-5.01c.22-.57.68-1.02,1.25-1.25l4.99-1.98c1.87-.74,1.87-3.39,0-4.13l-4.99-1.98c-.57-.23-1.02-.68-1.25-1.25l-1.97-5.01c-.74-1.87-3.38-1.87-4.11,0l-1.97,5.01Z"/>
    <path d="m1132.99,32.45c-.22.57-.68,1.02-1.25,1.25l-1.82.72c-1.87.74-1.87,3.39,0,4.13l1.82.72c.57.23,1.02.68,1.25,1.25l.72,1.83c.74,1.87,3.38,1.87,4.11,0l.72-1.83c.22-.57.68-1.02,1.25-1.25l1.82-.72c1.87-.74,1.87-3.39,0-4.13l-1.82-.72c-.57-.23-1.02-.68-1.25-1.25l-.72-1.83c-.74-1.87-3.38-1.87-4.11,0l-.72,1.83Z"/>
  </g>
  <g id="Page-1">
    <g id="Icon-Set">
      <path id="new" class="cls-16" d="m1168.62,34.55l-7.54,4.57c-.69.32-1.3-.34-.98-.99l4.57-7.55,3.96,3.97h0Zm13.27-22.18l4.97,4.9-15.78,15.79c-1.85-1.85-4.41-4.41-4.93-4.93l15.74-15.75h0Zm4.97-4.97c.54-.55,1.43-.55,1.97,0l2.96,2.96c.54.55.54,1.43,0,1.97l-2.96,2.96-4.86-5.01,2.89-2.89h0Zm-23.4,20.19l-6.04,12.22c-.51,1.38.59,2.61,1.97,1.97l12.21-6.04c.53-.1,1.04-.31,1.44-.71l21.7-21.71c1.09-1.09,1.09-2.86,0-3.95l-4.93-4.93c-1.09-1.09-2.86-1.09-3.94,0l-21.7,21.71c-.41.41-.61.92-.71,1.45h0Zm30.73-8.52v22.46c0,1.54-1.52,2.82-3.06,2.82h-33.47c-1.54,0-2.79-1.25-2.79-2.79V8.08c0-1.54,1.28-3.04,2.83-3.04h22.46v-2.81h-22.46c-3.08,0-5.62,2.76-5.62,5.85v33.49c0,3.08,2.5,5.58,5.58,5.58h33.47c3.08,0,5.87-2.53,5.87-5.62v-22.46h-2.81Z"/>
    </g>
  </g>
  <path class="cls-13" d="m677.22,44.98h-16.99c-2.63,0-4.77-2.14-4.77-4.77V11.59c0-2.63,2.14-4.77,4.77-4.77h16.99m18.78,19.08h-28.62m28.62,0l-9.54,9.54m9.54-9.54l-9.54-9.54"/>
  <line id="Path" class="cls-15" x1="1224.85" y1="27.32" x2="1224.85" y2="17.4"/>
  <line id="Path-2" data-name="Path" class="cls-15" x1="1224.85" y1="36" x2="1224.85" y2="36.32"/>
  <path id="Path-3" data-name="Path" class="cls-15" d="m1220.56,7.48c1.91-3.31,6.68-3.31,8.59,0l17.18,29.76c1.91,3.31-.48,7.44-4.3,7.44h-34.36c-3.82,0-6.2-4.13-4.3-7.44l17.18-29.76Z"/>
  <path d="m1287.36,4h-17.33c-3.57,0-6.47,2.9-6.47,6.47v.9h-.9c-3.57,0-6.47,2.9-6.47,6.47v22.28c0,3.57,2.9,6.47,6.47,6.47h17.33c3.57,0,6.47-2.9,6.47-6.47v-.9h.9c3.57,0,6.47-2.9,6.47-6.47V10.47c0-3.57-2.9-6.47-6.47-6.47Zm3.43,28.75c0,1.89-1.54,3.43-3.43,3.43h-.9v-18.34c0-3.57-2.9-6.47-6.47-6.47h-13.39v-.9c0-1.89,1.54-3.43,3.43-3.43h17.33c1.89,0,3.43,1.54,3.43,3.43v22.28Zm-10.8,10.8h-17.33c-1.89,0-3.43-1.54-3.43-3.43v-22.28c0-1.89,1.54-3.43,3.43-3.43h17.33c1.89,0,3.43,1.54,3.43,3.43v22.28c0,1.89-1.54,3.43-3.43,3.43Z"/>
  <path d="m1324.83,2c-12.79,0-23.17,10.37-23.17,23.17s10.37,23.17,23.17,23.17,23.17-10.37,23.17-23.17-10.37-23.17-23.17-23.17Zm5.5,35.52c-1.19.47-2.14.83-2.85,1.07-.71.25-1.53.37-2.47.37-1.44,0-2.56-.35-3.36-1.05-.8-.7-1.2-1.6-1.2-2.68,0-.42.03-.85.09-1.29.06-.44.16-.93.29-1.49l1.49-5.26c.13-.5.24-.98.33-1.43.09-.45.14-.86.14-1.23,0-.67-.14-1.14-.42-1.41-.28-.26-.81-.4-1.59-.4-.38,0-.78.06-1.18.18-.4.12-.75.24-1.04.34l.4-1.62c.97-.4,1.91-.74,2.8-1.02.89-.28,1.73-.42,2.53-.42,1.43,0,2.53.35,3.31,1.04.78.69,1.16,1.59,1.16,2.7,0,.23-.03.63-.08,1.21-.05.58-.15,1.11-.3,1.59l-1.48,5.24c-.12.42-.23.9-.33,1.44-.1.54-.14.95-.14,1.23,0,.7.16,1.17.47,1.42.31.25.85.38,1.62.38.36,0,.77-.06,1.23-.19.45-.13.79-.24.99-.33l-.4,1.62Zm-.26-21.3c-.69.64-1.52.97-2.49.97s-1.81-.32-2.51-.97c-.7-.64-1.05-1.42-1.05-2.33s.35-1.69,1.05-2.34c.7-.65,1.53-.97,2.51-.97s1.8.32,2.49.97c.69.65,1.04,1.43,1.04,2.34s-.34,1.69-1.04,2.33Z"/>
  <circle class="cls-11" cx="1375.12" cy="24.95" r="21.55"/>
  <line class="cls-12" x1="1365.43" y1="24.75" x2="1384.82" y2="24.75"/>
  <g id="Group_356" data-name="Group 356">
    <path id="Path_205" data-name="Path 205" d="m748.81,41.88l-4.91-14.82c1.78-1.66,3.02-3.8,3.59-6.16.02-.09.05-.18.07-.27.05-.24.09-.49.13-.73.03-.17.06-.35.08-.52.02-.19.03-.39.05-.58.01-.15.03-.3.04-.46,0-.07,0-.15,0-.22,0-.06,0-.12,0-.18,0-.14-.02-.26-.02-.4,0-.23-.01-.45-.03-.67-.02-.22-.05-.43-.08-.64-.02-.18-.05-.36-.08-.54-.05-.29-.12-.57-.19-.85-.02-.09-.04-.18-.07-.27-1.44-5.21-6.09-8.89-11.49-9.09h-.01s-.08-.01-.12-.01h-22.67s-.08,0-.12,0c-.1,0-.19.02-.28.03-5.3.31-9.81,3.95-11.22,9.06-.03.09-.05.19-.07.28-.07.28-.14.56-.19.84-.03.18-.05.36-.08.54-.03.21-.06.42-.07.63-.02.23-.02.46-.03.68,0,.13-.02.26-.02.39,0,.06,0,.12,0,.18,0,.08,0,.15,0,.22,0,.16.03.31.04.47.01.19.02.38.05.57.02.18.05.36.08.53.04.24.08.49.13.73.02.09.05.18.07.28.32,1.36.87,2.66,1.63,3.83-.68,1.06-1.2,2.22-1.53,3.43-.03.09-.05.19-.07.28-.07.28-.14.56-.19.84-.03.18-.05.36-.08.54-.03.21-.06.42-.07.63-.02.23-.02.46-.03.69,0,.13-.02.26-.02.39,0,.06,0,.12,0,.18,0,.08,0,.15,0,.22,0,.16.03.31.04.47.01.19.02.38.05.57.02.18.05.36.08.53.04.24.08.49.13.73.02.09.05.18.07.28,1.3,5.41,6.04,9.29,11.6,9.49.04,0,.08,0,.12,0h12.09c.42,0,.76-.34.76-.76v-12.85h9.82s.08,0,.12,0c.03,0,.07,0,.11,0,1.87-.09,3.69-.59,5.34-1.48l4.62,13.93c.2.62.78,1.04,1.44,1.04h0c.84,0,1.51-.69,1.5-1.53,0-.16-.03-.31-.08-.46m-44.78-10.34c0-1.52.36-3.01,1.06-4.36,2.17,1.97,4.96,3.11,7.88,3.21.04,0,.08,0,.12,0h9.82v10.58h-9.75c-5.09-.17-9.14-4.35-9.14-9.45m2.9-6.8c1.68-1.63,3.9-2.57,6.23-2.64h.14s9.61,0,9.61,0v5.29h-9.75c-2.33-.08-4.56-1.02-6.23-2.64m-.24-13.38c1.7-1.76,4.02-2.79,6.47-2.86h.14s9.61,0,9.61,0v10.58h-9.82s-.08,0-.12,0c-.1,0-.19.02-.28.03-2.82.16-5.51,1.29-7.6,3.19-1.87-3.61-1.23-8.01,1.6-10.93m19.25,8.47v-11.33h9.75c5.21.17,9.3,4.54,9.13,9.75-.06,2.01-.77,3.96-2.02,5.54-.25-.68-.59-1.33-1.01-1.92-1.15-1.77-3.11-2.83-5.21-2.83h-7.55c-.83,0-1.51.68-1.51,1.51s.68,1.51,1.51,1.51h7.55c1.1,0,2.12.56,2.71,1.49.37.52.64,1.09.83,1.69,0,.02.02.06.02.08l.21.65c-1.4.87-3.01,1.36-4.66,1.41h-9.75s0-7.55,0-7.55Z"/>
  </g>
  <path d="m1546.78,15.44l-13.93-13.93c-.14-.14-.33-.22-.53-.22h-15.77c-3.67,0-6.66,2.99-6.66,6.66v13.18h-5.84c-1.13,0-2.05.92-2.05,2.05v11.77c0,1.13.92,2.05,2.05,2.05h5.84v5.73c0,3.67,2.99,6.66,6.66,6.66h23.79c3.67,0,6.66-2.99,6.66-6.66V15.97c0-.2-.08-.39-.22-.53h0Zm-13.71-11.59l11.36,11.37h-10.61c-.41,0-.75-.34-.75-.75V3.86h0Zm-29.57,31.09v-11.77c0-.3.25-.55.55-.55h32.08c.3,0,.55.24.55.55v11.77c0,.3-.24.55-.55.55h-32.08c-.3,0-.55-.25-.55-.55h0Zm36.84,12.93h-23.79c-2.84,0-5.16-2.31-5.16-5.16v-5.73h24.74c1.13,0,2.05-.92,2.05-2.05v-11.77c0-1.13-.92-2.05-2.05-2.05h-24.74V7.95c0-2.84,2.31-5.16,5.16-5.16h15.02v11.67c0,1.24,1.01,2.25,2.25,2.25h11.67v26c0,2.84-2.31,5.16-5.16,5.16Zm-29.73-20.42v3.22c0,.92.75,1.67,1.67,1.67s1.67-.75,1.67-1.67c0-.41.34-.75.75-.75s.75.34.75.75c0,1.75-1.42,3.17-3.17,3.17s-3.17-1.42-3.17-3.17v-3.22c0-1.75,1.42-3.17,3.17-3.17s3.17,1.42,3.17,3.17c0,.41-.34.75-.75.75s-.75-.34-.75-.75c0-.92-.75-1.67-1.67-1.67s-1.67.75-1.67,1.67Zm7.64-.41c0,.69.16,1.26,2.07,1.26,1.53,0,2.77,1.24,2.77,2.76s-1.24,2.77-2.77,2.77h-1.2c-1.31,0-2.38-1.07-2.38-2.38,0-.41.34-.75.75-.75s.75.34.75.75c0,.48.39.88.88.88h1.2c.7,0,1.26-.57,1.26-1.26s-.57-1.26-1.26-1.26c-.64,0-1.57-.05-2.3-.45-.58-.31-1.27-.97-1.27-2.32,0-1.52,1.24-2.76,2.76-2.76h1.2c1.31,0,2.38,1.07,2.38,2.38,0,.41-.34.75-.75.75s-.75-.34-.75-.75c0-.48-.39-.88-.88-.88h-1.2c-.7,0-1.26.57-1.26,1.26h0Zm12.78-1.78l-2.68,8.06c-.1.31-.39.51-.71.51h0c-.32,0-.61-.21-.71-.51l-2.67-8.06c-.13-.39.08-.82.48-.95.39-.13.82.08.95.48l1.96,5.91,1.96-5.91c.13-.39.56-.61.95-.48.39.13.61.56.48.95h0Z"/>
  <g>
    <g id="ARC">
      <path d="m1578.49,23.66c-.46,0-.92-.18-1.27-.53-2.81-2.81-7.37-2.81-10.18,0-.7.7-1.84.7-2.54,0-.7-.7-.7-1.84,0-2.54,4.21-4.21,11.05-4.21,15.26,0,.7.7.7,1.84,0,2.54-.35.35-.81.53-1.27.53h0Z"/>
    </g>
    <g id="ARC-2" data-name="ARC">
      <path d="m1577.22,33.92c-2.76,0-5.53-1.05-7.63-3.16-.7-.7-.7-1.84,0-2.54.7-.7,1.84-.7,2.54,0,2.81,2.81,7.37,2.81,10.18,0,.7-.7,1.84-.7,2.54,0,.7.7.7,1.84,0,2.54-2.1,2.1-4.87,3.16-7.63,3.16h0Z"/>
    </g>
    <g id="LINE">
      <path d="m1583.58,31.29c-.46,0-.92-.18-1.27-.53-.7-.7-.7-1.84,0-2.54l10.05-10.05c.7-.7,1.84-.7,2.54,0,.7.7.7,1.84,0,2.54l-10.05,10.05c-.35.35-.81.53-1.27.53h0Z"/>
    </g>
    <g id="LINE-2" data-name="LINE">
      <path d="m1568.44,46.42c-.46,0-.92-.18-1.27-.53-.7-.7-.7-1.84,0-2.54l5.62-5.62c.7-.7,1.84-.7,2.54,0,.7.7.7,1.84,0,2.54l-5.62,5.62c-.35.35-.81.53-1.27.53h0Z"/>
    </g>
    <g id="LINE-3" data-name="LINE">
      <path d="m1555.72,33.71c-.46,0-.92-.18-1.27-.53-.7-.7-.7-1.84,0-2.54l10.05-10.05c.7-.7,1.84-.7,2.54,0,.7.7.7,1.84,0,2.54l-10.05,10.05c-.35.35-.81.53-1.27.53Z"/>
    </g>
    <g id="LINE-4" data-name="LINE">
      <path d="m1575.29,14.14c-.46,0-.92-.18-1.27-.53-.7-.7-.7-1.84,0-2.54l5.62-5.62c.7-.7,1.84-.7,2.54,0,.7.7.7,1.84,0,2.54l-5.62,5.62c-.35.35-.81.53-1.27.53Z"/>
    </g>
    <g id="ARC-3" data-name="ARC">
      <path d="m1562.08,49c-2.78,0-5.56-1.03-7.63-3.1-4.14-4.14-4.14-11.13,0-15.26.7-.7,1.84-.7,2.54,0,.7.7.7,1.84,0,2.54-2.76,2.76-2.76,7.42,0,10.18s7.42,2.76,10.18,0c.7-.7,1.84-.7,2.54,0,.7.7.7,1.84,0,2.54-2.07,2.07-4.85,3.1-7.63,3.1h0Z"/>
    </g>
    <g id="ARC-4" data-name="ARC">
      <path d="m1593.62,21.24c-.46,0-.92-.18-1.27-.53-.7-.7-.7-1.84,0-2.54,2.76-2.76,2.76-7.42,0-10.18s-7.42-2.76-10.18,0c-.7.7-1.84.7-2.54,0-.7-.7-.7-1.84,0-2.54,4.14-4.14,11.13-4.14,15.26,0,4.14,4.14,4.14,11.13,0,15.26-.35.35-.81.53-1.27.53h0Z"/>
    </g>
  </g>
  <path d="m1642.22,31.43v10.72c0,3.04-2.47,5.51-5.51,5.51h-29.1c-3.04,0-5.51-2.47-5.51-5.51V13.05c0-3.04,2.47-5.51,5.51-5.51h10.72c.79,0,1.43.64,1.43,1.44s-.64,1.44-1.43,1.44h-10.72c-1.46,0-2.65,1.19-2.65,2.64v29.11c0,1.46,1.19,2.64,2.65,2.64h29.1c1.46,0,2.65-1.19,2.65-2.64v-10.72c0-.79.64-1.44,1.43-1.44s1.43.64,1.43,1.44Zm4.35-29.68h-19.54c-.79,0-1.43.64-1.43,1.44s.64,1.44,1.43,1.44h16.07l-27.81,27.81c-.56.56-.56,1.47,0,2.03.28.28.65.42,1.01.42s.73-.14,1.01-.42l27.81-27.81v16.07c0,.79.64,1.44,1.43,1.44s1.43-.64,1.43-1.44V3.19c0-.79-.64-1.44-1.43-1.44h0Z"/>
  <line class="cls-9" x1="1693" y1="5" x2="1693" y2="45.5"/>
  <line class="cls-9" x1="1684.5" y1="25.5" x2="1660.5" y2="25.5"/>
  <polyline class="cls-9" points="1665.85 17.64 1658.07 25.42 1666.21 33.56"/>
  <rect class="cls-9" x="1754.5" y="4.5" width="13" height="42"/>
  <rect class="cls-9" x="1803.5" y="4.5" width="13" height="42"/>
  <g>
    <polyline class="cls-9" points="1757 46.5 1754.5 46.5 1754.5 44"/>
    <line class="cls-7" x1="1754.5" y1="38.31" x2="1754.5" y2="9.85"/>
    <polyline class="cls-9" points="1754.5 7 1754.5 4.5 1757 4.5"/>
    <path class="cls-4" d="m1762.99,4.5h27.47c3.34,0,6.05,2.71,6.05,6.05v29.91c0,3.34-2.71,6.05-6.05,6.05h-30.46"/>
  </g>
  <path class="cls-9" d="m1803.5,4.5h35.95c3.34,0,6.05,2.71,6.05,6.05v29.91c0,3.34-2.71,6.05-6.05,6.05h-35.95V4.5h0Z"/>
  <line class="cls-9" x1="1788.5" y1="25.89" x2="1776.44" y2="25.89"/>
  <polyline class="cls-9" points="1779.68 21.12 1774.97 25.84 1779.9 30.77"/>
  <line class="cls-9" x1="1823.97" y1="26.01" x2="1836.03" y2="26.01"/>
  <polyline class="cls-9" points="1832.78 30.77 1837.5 26.06 1832.56 21.12"/>
</svg>